<?xml version="1.0" encoding="utf-8"?>
<!-- Generator: Adobe Illustrator 23.0.1, SVG Export Plug-In . SVG Version: 6.00 Build 0)  -->
<svg version="1.1" id="Layer_1" xmlns="http://www.w3.org/2000/svg" xmlns:xlink="http://www.w3.org/1999/xlink" x="0px" y="0px"
	 viewBox="0 0 131.1 22" style="enable-background:new 0 0 131.1 22;" xml:space="preserve">
<style type="text/css">
	.st0{display:none;fill:#222222;}
	.st1{display:none;fill:#F09D51;}
	.st2{fill:#325437;}
</style>
<path class="st0" d="M7.6,13.7c0.2,0,0.4,0.1,0.5,0.2l1.4,1.5c-0.7,0.9-1.6,1.6-2.6,2c-1,0.5-2.3,0.7-3.7,0.7
	c-1.3,0-2.5-0.2-3.5-0.7c-1-0.4-1.9-1.1-2.7-1.9c-0.7-0.8-1.3-1.7-1.7-2.8c-0.4-1.1-0.6-2.3-0.6-3.6c0-0.9,0.1-1.7,0.3-2.5
	C-4.8,6-4.5,5.3-4.2,4.7C-3.8,4-3.4,3.4-2.9,2.9c0.5-0.5,1.1-1,1.7-1.3c0.6-0.4,1.3-0.7,2.1-0.9c0.8-0.2,1.6-0.3,2.4-0.3
	c0.6,0,1.2,0.1,1.8,0.2C5.7,0.7,6.3,0.8,6.8,1c0.5,0.2,1,0.4,1.4,0.7C8.6,2,9,2.4,9.3,2.7L8.1,4.3C8,4.4,7.9,4.5,7.8,4.6
	C7.7,4.7,7.5,4.7,7.3,4.7C7.2,4.7,7,4.7,6.8,4.5C6.6,4.4,6.3,4.2,6,4.1C5.8,3.9,5.4,3.8,5,3.6C4.5,3.5,4,3.4,3.3,3.4
	c-0.7,0-1.4,0.1-2,0.4S0.2,4.5-0.2,5c-0.4,0.5-0.8,1.1-1,1.8c-0.2,0.7-0.4,1.6-0.4,2.5c0,0.9,0.1,1.8,0.4,2.5
	c0.3,0.7,0.6,1.3,1.1,1.8c0.5,0.5,1,0.9,1.6,1.2c0.6,0.3,1.3,0.4,1.9,0.4c0.4,0,0.8,0,1.1-0.1c0.3,0,0.6-0.1,0.9-0.2
	c0.3-0.1,0.6-0.2,0.8-0.4C6.5,14.4,6.7,14.2,7,14c0.1-0.1,0.2-0.1,0.3-0.2S7.5,13.7,7.6,13.7z M23.6,5.4c0.9,0,1.8,0.1,2.5,0.4
	c0.8,0.3,1.4,0.7,2,1.3c0.5,0.5,1,1.2,1.3,2c0.3,0.8,0.4,1.7,0.4,2.7s-0.1,1.9-0.4,2.7c-0.3,0.8-0.7,1.5-1.3,2c-0.5,0.6-1.2,1-2,1.3
	c-0.8,0.3-1.6,0.4-2.5,0.4c-0.9,0-1.8-0.1-2.6-0.4c-0.8-0.3-1.4-0.7-2-1.3c-0.5-0.6-1-1.2-1.3-2c-0.3-0.8-0.4-1.7-0.4-2.7
	s0.1-1.9,0.4-2.7c0.3-0.8,0.7-1.4,1.3-2c0.5-0.6,1.2-1,2-1.3C21.8,5.6,22.7,5.4,23.6,5.4z M23.6,15.7c0.9,0,1.6-0.3,2.1-1
	c0.5-0.7,0.7-1.6,0.7-2.9c0-1.3-0.2-2.2-0.7-2.9c-0.5-0.7-1.2-1-2.1-1c-1,0-1.7,0.3-2.1,1c-0.5,0.6-0.7,1.6-0.7,2.9
	c0,1.3,0.2,2.3,0.7,2.9C21.9,15.4,22.6,15.7,23.6,15.7z M39.1,18V5.6h2c0.4,0,0.7,0.2,0.8,0.6L42.1,7c0.2-0.2,0.4-0.4,0.7-0.6
	C43,6.2,43.3,6,43.5,5.9c0.3-0.1,0.5-0.3,0.9-0.3c0.3-0.1,0.6-0.1,1-0.1c0.8,0,1.4,0.2,1.9,0.6c0.5,0.4,0.9,0.9,1.1,1.6
	c0.2-0.4,0.4-0.7,0.7-1c0.3-0.3,0.6-0.5,1-0.7c0.4-0.2,0.7-0.3,1.1-0.4c0.4-0.1,0.8-0.1,1.2-0.1c0.7,0,1.3,0.1,1.8,0.3
	c0.5,0.2,1,0.5,1.3,0.9c0.4,0.4,0.6,0.9,0.8,1.5c0.2,0.6,0.3,1.2,0.3,2V18h-3.3v-7.9c0-1.4-0.6-2.2-1.9-2.2c-0.3,0-0.5,0-0.8,0.1
	c-0.2,0.1-0.4,0.2-0.6,0.4c-0.2,0.2-0.3,0.4-0.4,0.7c-0.1,0.3-0.1,0.6-0.1,0.9V18h-3.3v-7.9c0-0.8-0.2-1.3-0.5-1.7
	C45.5,8.1,45,8,44.4,8c-0.4,0-0.7,0.1-1.1,0.3C43,8.4,42.7,8.7,42.4,9v9H39.1z M67.2,18V8l-1-0.2c-0.2,0-0.5-0.1-0.6-0.3
	c-0.2-0.1-0.2-0.3-0.2-0.6V5.7h1.8V4.9c0-0.7,0.1-1.3,0.3-1.9c0.2-0.6,0.5-1.1,0.9-1.5c0.4-0.4,0.9-0.7,1.5-0.9
	c0.6-0.2,1.3-0.3,2-0.3c0.3,0,0.6,0,0.8,0.1c0.3,0,0.5,0.1,0.8,0.2l-0.1,1.6c0,0.2-0.1,0.4-0.3,0.5c-0.2,0.1-0.4,0.1-0.6,0.1
	c-0.3,0-0.6,0-0.9,0.1c-0.3,0.1-0.5,0.2-0.7,0.4c-0.2,0.2-0.3,0.4-0.4,0.7c-0.1,0.3-0.1,0.6-0.1,1.1v0.7h3.1V8h-3v10H67.2z
	 M93.7,5.6L87,21.3c-0.1,0.2-0.2,0.4-0.4,0.5c-0.1,0.1-0.4,0.2-0.7,0.2h-2.5l2.3-5l-5-11.4h2.9c0.3,0,0.5,0.1,0.6,0.2
	c0.1,0.1,0.2,0.3,0.3,0.4l2.4,5.9c0.1,0.2,0.2,0.5,0.2,0.7c0.1,0.2,0.1,0.5,0.2,0.7c0.1-0.5,0.3-0.9,0.5-1.4l2.2-5.9
	c0.1-0.2,0.2-0.3,0.3-0.4s0.4-0.2,0.6-0.2H93.7z"/>
<path class="st1" d="M117.5,0.6V18h-3.6v-7.5h-7.7V18h-3.6V0.6h3.6V8h7.7V0.6H117.5z M133.1,5.4c0.9,0,1.8,0.1,2.5,0.4
	c0.8,0.3,1.4,0.7,2,1.3c0.5,0.5,1,1.2,1.3,2s0.4,1.7,0.4,2.7s-0.1,1.9-0.4,2.7c-0.3,0.8-0.7,1.5-1.3,2c-0.5,0.6-1.2,1-2,1.3
	c-0.8,0.3-1.6,0.4-2.5,0.4c-0.9,0-1.8-0.1-2.6-0.4c-0.8-0.3-1.4-0.7-2-1.3c-0.5-0.6-1-1.2-1.3-2c-0.3-0.8-0.4-1.7-0.4-2.7
	s0.1-1.9,0.4-2.7c0.3-0.8,0.7-1.4,1.3-2c0.5-0.6,1.2-1,2-1.3C131.3,5.6,132.2,5.4,133.1,5.4z M133.1,15.7c0.9,0,1.6-0.3,2.1-1
	c0.5-0.7,0.7-1.6,0.7-2.9c0-1.3-0.2-2.2-0.7-2.9c-0.5-0.7-1.2-1-2.1-1c-1,0-1.7,0.3-2.1,1c-0.5,0.6-0.7,1.6-0.7,2.9
	c0,1.3,0.2,2.3,0.7,2.9C131.4,15.4,132.2,15.7,133.1,15.7z M159.5,5.6V18h-2c-0.4,0-0.7-0.2-0.8-0.6l-0.2-0.9
	c-0.2,0.2-0.5,0.5-0.8,0.7c-0.3,0.2-0.5,0.4-0.9,0.5c-0.3,0.1-0.6,0.3-1,0.3c-0.3,0.1-0.7,0.1-1.1,0.1c-0.7,0-1.3-0.1-1.8-0.3
	c-0.5-0.2-1-0.6-1.3-1c-0.4-0.4-0.6-0.9-0.8-1.5c-0.2-0.6-0.3-1.2-0.3-1.9V5.6h3.3v7.9c0,0.7,0.2,1.2,0.5,1.6
	c0.3,0.4,0.8,0.6,1.4,0.6c0.5,0,0.9-0.1,1.3-0.3c0.4-0.2,0.8-0.5,1.2-0.8V5.6H159.5z M177.1,8.2c-0.1,0.1-0.2,0.2-0.3,0.3
	c-0.1,0.1-0.2,0.1-0.4,0.1s-0.3,0-0.5-0.1s-0.4-0.2-0.6-0.3c-0.2-0.1-0.4-0.2-0.7-0.3c-0.3-0.1-0.6-0.1-0.9-0.1
	c-0.5,0-1,0.1-1.2,0.3C172.2,8.4,172,8.6,172,9c0,0.2,0.1,0.5,0.3,0.6c0.2,0.2,0.4,0.3,0.7,0.4c0.3,0.1,0.6,0.2,0.9,0.3
	c0.4,0.1,0.7,0.2,1.1,0.3c0.4,0.1,0.7,0.3,1.1,0.4c0.4,0.2,0.7,0.4,0.9,0.6c0.3,0.2,0.5,0.6,0.7,0.9c0.2,0.4,0.3,0.8,0.3,1.3
	c0,0.6-0.1,1.2-0.3,1.7c-0.2,0.5-0.5,0.9-1,1.3s-1,0.7-1.6,0.9c-0.6,0.2-1.4,0.3-2.2,0.3c-0.4,0-0.8,0-1.3-0.1
	c-0.4-0.1-0.8-0.2-1.2-0.3c-0.4-0.1-0.7-0.3-1.1-0.5c-0.3-0.2-0.6-0.4-0.9-0.6l0.8-1.2c0.1-0.1,0.2-0.3,0.3-0.3
	c0.1-0.1,0.3-0.1,0.5-0.1c0.2,0,0.4,0.1,0.6,0.2c0.2,0.1,0.4,0.2,0.6,0.3c0.2,0.1,0.5,0.2,0.7,0.3c0.3,0.1,0.6,0.1,1.1,0.1
	c0.3,0,0.6,0,0.8-0.1c0.2-0.1,0.4-0.2,0.6-0.3c0.1-0.1,0.2-0.3,0.3-0.4c0.1-0.2,0.1-0.3,0.1-0.5c0-0.3-0.1-0.5-0.3-0.7
	c-0.2-0.2-0.4-0.3-0.7-0.5c-0.3-0.1-0.6-0.2-0.9-0.3c-0.4-0.1-0.7-0.2-1.1-0.3c-0.4-0.1-0.7-0.3-1.1-0.5c-0.4-0.2-0.7-0.4-0.9-0.7
	c-0.3-0.3-0.5-0.6-0.7-1c-0.2-0.4-0.3-0.9-0.3-1.4c0-0.5,0.1-1,0.3-1.5c0.2-0.5,0.5-0.9,0.9-1.2c0.4-0.4,0.9-0.6,1.5-0.8
	c0.6-0.2,1.3-0.3,2.1-0.3c0.9,0,1.7,0.1,2.4,0.4s1.3,0.7,1.8,1.1L177.1,8.2z M195.1,10.4c0-0.3,0-0.7-0.1-1
	c-0.1-0.3-0.2-0.6-0.4-0.8c-0.2-0.2-0.5-0.4-0.8-0.6c-0.3-0.1-0.7-0.2-1.1-0.2c-0.8,0-1.4,0.2-1.9,0.7s-0.7,1.1-0.9,1.9H195.1z
	 M189.8,12.3c0.1,1.2,0.4,2,1,2.5c0.6,0.5,1.3,0.8,2.2,0.8c0.5,0,0.8-0.1,1.2-0.2c0.3-0.1,0.6-0.2,0.9-0.4c0.3-0.1,0.5-0.3,0.7-0.4
	c0.2-0.1,0.4-0.2,0.6-0.2c0.3,0,0.5,0.1,0.6,0.3l1,1.2c-0.4,0.4-0.7,0.7-1.2,1c-0.4,0.3-0.9,0.5-1.3,0.6c-0.5,0.2-0.9,0.3-1.4,0.3
	c-0.5,0.1-0.9,0.1-1.3,0.1c-0.9,0-1.7-0.1-2.4-0.4c-0.7-0.3-1.4-0.7-2-1.3c-0.6-0.6-1-1.3-1.3-2.1c-0.3-0.8-0.5-1.8-0.5-2.9
	c0-0.8,0.1-1.6,0.4-2.4c0.3-0.7,0.7-1.4,1.2-1.9c0.5-0.6,1.2-1,1.9-1.3c0.7-0.3,1.6-0.5,2.5-0.5c0.8,0,1.5,0.1,2.2,0.4
	c0.7,0.2,1.2,0.6,1.7,1.1c0.5,0.5,0.9,1.1,1.1,1.8c0.3,0.7,0.4,1.5,0.4,2.4c0,0.2,0,0.5,0,0.6c0,0.2-0.1,0.3-0.1,0.4
	c-0.1,0.1-0.1,0.2-0.2,0.2c-0.1,0-0.2,0-0.4,0H189.8z"/>
<g>
	<path class="st2" d="M28.7,12.6c0-0.4-0.1-0.7-0.4-0.9c-0.3-0.2-0.7-0.4-1.4-0.7c-0.7-0.2-1.2-0.4-1.7-0.7
		c-1.4-0.7-2.1-1.6-2.1-2.8c0-0.6,0.2-1.1,0.5-1.6c0.3-0.5,0.8-0.8,1.5-1.1c0.6-0.3,1.4-0.4,2.2-0.4c0.8,0,1.5,0.1,2.1,0.4
		c0.6,0.3,1.1,0.7,1.4,1.2c0.3,0.4,0.4,0.9,0.5,1.4c0,0.2-0.1,0.3-0.3,0.3h-2c-0.2,0-0.3-0.1-0.3-0.3c0-0.3-0.2-0.6-0.4-0.8
		c-0.3-0.2-0.6-0.4-1.1-0.4c-0.5,0-0.8,0.1-1.1,0.3c-0.3,0.2-0.4,0.5-0.4,0.8c0,0.3,0.1,0.5,0.4,0.8C26.5,8.5,27,8.8,27.8,9
		c0.7,0.2,1.4,0.5,1.8,0.8c1.2,0.7,1.8,1.6,1.8,2.8c0,0.9-0.4,1.7-1.1,2.2c-0.7,0.5-1.7,0.8-2.9,0.8c-0.9,0-1.7-0.2-2.4-0.5
		c-0.7-0.3-1.2-0.7-1.6-1.3c-0.3-0.5-0.5-1-0.5-1.5c0-0.2,0.1-0.3,0.3-0.3h2c0.2,0,0.3,0.1,0.3,0.3c0,0.4,0.2,0.7,0.4,1
		c0.3,0.3,0.8,0.4,1.5,0.4c0.4,0,0.8-0.1,1-0.3C28.6,13.2,28.7,12.9,28.7,12.6z"/>
	<path class="st2" d="M40.6,10.9h-3.4c-0.2,0-0.3,0.1-0.3,0.3v1.9c0,0.2,0.1,0.3,0.3,0.3h4.2c0.2,0,0.3,0.1,0.3,0.3v1.4
		c0,0.2-0.1,0.3-0.3,0.3h-6.8c-0.2,0-0.3-0.1-0.3-0.3V5c0-0.2,0.1-0.3,0.3-0.3h6.8c0.2,0,0.3,0.1,0.3,0.3v1.4c0,0.2-0.1,0.3-0.3,0.3
		h-4.2c-0.2,0-0.3,0.1-0.3,0.3v1.6c0,0.2,0.1,0.3,0.3,0.3h3.4c0.2,0,0.3,0.1,0.3,0.3v1.3C40.9,10.7,40.8,10.9,40.6,10.9z"/>
	<path class="st2" d="M50.6,10.9h-3.4c-0.2,0-0.3,0.1-0.3,0.3v1.9c0,0.2,0.1,0.3,0.3,0.3h4.2c0.2,0,0.3,0.1,0.3,0.3v1.4
		c0,0.2-0.1,0.3-0.3,0.3h-6.8c-0.2,0-0.3-0.1-0.3-0.3V5c0-0.2,0.1-0.3,0.3-0.3h6.8c0.2,0,0.3,0.1,0.3,0.3v1.4c0,0.2-0.1,0.3-0.3,0.3
		h-4.2c-0.2,0-0.3,0.1-0.3,0.3v1.6c0,0.2,0.1,0.3,0.3,0.3h3.4c0.2,0,0.3,0.1,0.3,0.3v1.3C51,10.7,50.8,10.9,50.6,10.9z"/>
	<path class="st2" d="M54.3,15.1V5c0-0.2,0.1-0.3,0.3-0.3h3.2c1,0,1.8,0.2,2.6,0.6c0.8,0.4,1.4,1,1.8,1.8c0.4,0.8,0.6,1.7,0.6,2.7
		v0.5c0,1-0.2,1.9-0.6,2.7c-0.4,0.8-1,1.4-1.8,1.8c-0.8,0.4-1.6,0.7-2.5,0.7h-3.2C54.4,15.4,54.3,15.3,54.3,15.1z M56.9,6.7v6.8h0.9
		c0.7,0,1.3-0.3,1.7-0.8c0.4-0.5,0.6-1.3,0.6-2.4V9.8c0-1-0.2-1.8-0.6-2.4c-0.4-0.5-1-0.8-1.8-0.8H56.9z"/>
</g>
<g>
	<path class="st2" d="M73.9,12.9c0-0.5-0.1-0.8-0.3-1.2s-0.6-0.6-1-0.8c-0.5-0.2-1.2-0.5-2.1-0.8c-0.9-0.3-1.6-0.5-2.1-0.8
		c-0.5-0.3-0.8-0.6-1-0.9C67.1,8.1,67,7.6,67,7.1c0-0.8,0.3-1.4,1-1.9c0.7-0.5,1.5-0.7,2.6-0.7c0.7,0,1.3,0.1,1.9,0.4
		c0.6,0.3,1,0.6,1.3,1.1c0.3,0.5,0.5,1,0.5,1.7h-0.4c0-0.8-0.3-1.5-0.9-2s-1.4-0.8-2.3-0.8c-0.9,0-1.7,0.2-2.3,0.6
		c-0.6,0.4-0.9,1-0.9,1.6c0,0.6,0.3,1.2,0.8,1.6c0.5,0.4,1.4,0.7,2.5,1c1.2,0.3,2,0.7,2.6,1.1c0.7,0.5,1,1.2,1,2
		c0,0.5-0.2,1-0.5,1.4c-0.3,0.4-0.7,0.7-1.3,1c-0.6,0.2-1.2,0.3-1.9,0.3c-0.8,0-1.5-0.1-2.1-0.4c-0.6-0.3-1.1-0.6-1.4-1.1
		c-0.3-0.5-0.5-1-0.5-1.7h0.4c0,0.9,0.3,1.6,1,2.1c0.7,0.5,1.5,0.7,2.6,0.7c0.9,0,1.7-0.2,2.3-0.6C73.6,14.1,73.9,13.5,73.9,12.9z"
		/>
	<path class="st2" d="M85.7,15.4h-0.4v-5c0-0.2-0.1-0.3-0.3-0.3h-6.3c-0.2,0-0.3,0.1-0.3,0.3v5H78V4.6h0.4v4.7
		c0,0.2,0.1,0.3,0.3,0.3h6.3c0.2,0,0.3-0.1,0.3-0.3V4.6h0.4V15.4z"/>
	<path class="st2" d="M97.8,10.9c0,0.9-0.2,1.8-0.5,2.5c-0.3,0.7-0.8,1.3-1.4,1.7c-0.6,0.4-1.3,0.6-2.1,0.6c-1.2,0-2.2-0.4-3-1.3
		c-0.8-0.9-1.1-2-1.1-3.5V9.2c0-0.9,0.2-1.8,0.5-2.5C90.5,6,91,5.5,91.6,5.1c0.6-0.4,1.3-0.6,2.1-0.6c0.8,0,1.5,0.2,2.1,0.6
		c0.6,0.4,1.1,1,1.4,1.7c0.3,0.7,0.5,1.5,0.5,2.5V10.9z M97.4,9.2c0-1.3-0.3-2.4-1-3.1c-0.7-0.8-1.6-1.2-2.7-1.2
		c-1.1,0-2,0.4-2.7,1.2c-0.7,0.8-1,1.9-1,3.2v1.6c0,0.9,0.1,1.6,0.4,2.3c0.3,0.7,0.7,1.2,1.3,1.5c0.6,0.4,1.2,0.5,1.9,0.5
		c1.1,0,2-0.4,2.7-1.2c0.7-0.8,1-1.9,1-3.2V9.2z"/>
	<path class="st2" d="M102.6,10.9c-0.2,0-0.3,0.1-0.3,0.3v4.2h-0.4V5c0-0.2,0.1-0.3,0.3-0.3h3.1c1.1,0,2,0.3,2.6,0.8
		c0.6,0.6,0.9,1.3,0.9,2.3c0,1-0.3,1.7-0.9,2.3c-0.6,0.5-1.4,0.8-2.5,0.8H102.6z M102.2,10.2c0,0.2,0.1,0.3,0.3,0.3h2.7
		c1,0,1.7-0.2,2.3-0.7c0.5-0.5,0.8-1.1,0.8-2c0-0.9-0.3-1.5-0.8-2c-0.5-0.5-1.3-0.7-2.3-0.7h-2.7c-0.2,0-0.3,0.1-0.3,0.3V10.2z"/>
</g>
</svg>
